# xmcd
#
# Track frame offsets:
#	150
#	12811
#	22112
#	32930
#	46198
#	60080
#	71130
#	82949
#	92350
#	108268
#	117239
#	128684
#	138516
#	152111
#	163662
#	173891
#	186105
#	195430
#	211963
#	224243
#	234691
#	244745
#	255092
#	267166
#
# Disc length: 3712 seconds
#
# Revision: 1
# Processed by: cddbd v1.5.1PL2 Copyright (c) Steve Scherf et al.
# Submitted via: audiograbber 1.83.01
#
DISCID=440e7e18
DTITLE=The Greatest Country Music Recordings Of All Time - A Woman's Side Of Lo
DTITLE=ve (31&32)
DYEAR=1900
DGENRE=
TTITLE0=Patsy Cline - I Fall To Pieces
TTITLE1=Loretta Lynn - Don't Come Home A-drinkin'
TTITLE2=Connie Smith - Just For What I Am
TTITLE3=Patsy Cline - She's Got You
TTITLE4=Dottsy - I'll Be Your San Antone Rose
TTITLE5=Jean Shepard - Slippin' Away
TTITLE6=Loretta Lynn - The Pill
TTITLE7=Norma Jean - Heaven Help The Working Girl
TTITLE8=Dolly Parton - Heartbreaker
TTITLE9=Patsy Cline - Walking After Midnight
TTITLE10=Debbie Boone - Are You On The Road To Loving Me Again
TTITLE11=Jean Shepard - Second Fiddle
TTITLE12=Loretta Lynn - Coal Miner's Daughter
TTITLE13=Patsy Cline - Sweet Dreams
TTITLE14=Barbara Fairchild - Standing In Your Line
TTITLE15=Loretta Lynn - Blue Kentucky Girl
TTITLE16=Patsy Cline - Tra Le La La Triangle
TTITLE17=Sylvia - Like Nothing Ever Happened
TTITLE18=Patsy Cline - Crazy
TTITLE19=Connie Smith - Once A Day
TTITLE20=Loretta Lynn - You Ain't Woman Enough
TTITLE21=Loretta Lynn - Honky-Tonk Girl
TTITLE22=Wilma Burgess - Misty Blue
TTITLE23=Loretta Lynn - Love Is The Foundation
EXTD=
EXTT0=
EXTT1=
EXTT2=
EXTT3=
EXTT4=
EXTT5=
EXTT6=
EXTT7=
EXTT8=
EXTT9=
EXTT10=
EXTT11=
EXTT12=
EXTT13=
EXTT14=
EXTT15=
EXTT16=
EXTT17=
EXTT18=
EXTT19=
EXTT20=
EXTT21=
EXTT22=
EXTT23=
PLAYORDER=
